.
..............................Site Info...........................

 -   http://www.scenetime.com  *_*   

SceneTime is going to Close sign up on march/1, hurry up! get in before the doors are closed.

     We care to share . Join us on  http://www.scenetime.com 

    Be the first to get new release at  http://www.scenetime.com

        Seed back for speed


...................................NFO:.................................................[img]http://img43.imageshack.us/img43/3311/marilyna.jpg[/img]


[color=blue][size=4][b]My.Week.With.Marilyn.2011.BDRip.XVID.AC3.HQ.Hive-CM8[/b][/size][/color]


[b] Thx Hive

CM8 Doing It Right The First Time :D

Source: Bluray

Video: 720x304 @bitrate 1700 2pass
Audio: English DTS to AC3 5.1 @448
Sample: yes included
Subs: yes english in srt /subs[/b]


[url]http://www.imdb.com/title/tt1655420/[/url]


General
Complete name                  : My.Week.With.Marilyn.2011.BDRip.XVID.AC3.HQ.Hive-CM8.avi
Format                         : AVI
Format/Info                    : Audio Video Interleave
File size                      : 1.58 GiB
Duration                       : 1h 38mn
Overall bit rate               : 2 289 Kbps
Writing application            : Nandub v1.0rc2
Writing library                : Nandub build 1853/release

Video
ID                             : 0
Format                         : MPEG-4 Visual
Format profile                 : Advanced Simple@L5
Format settings, BVOP          : 1
Format settings, QPel          : Yes
Format settings, GMC           : No warppoints
Format settings, Matrix        : Default (H.263)
Muxing mode                    : Packed bitstream
Codec ID                       : XVID
Codec ID/Hint                  : XviD
Duration                       : 1h 38mn
Bit rate                       : 1 831 Kbps
Width                          : 720 pixels
Height                         : 304 pixels
Display aspect ratio           : 2.35:1
Frame rate                     : 23.976 fps
Color space                    : YUV
Chroma subsampling             : 4:2:0
Bit depth                      : 8 bits
Scan type                      : Progressive
Compression mode               : Lossy
Bits/(Pixel*Frame)             : 0.349
Stream size                    : 1.27 GiB (80%)
Writing library                : XviD 1.2.1 (UTC 2008-12-04)

Audio
ID                             : 1
Format                         : AC-3
Format/Info                    : Audio Coding 3
Mode extension                 : CM (complete main)
Codec ID                       : 2000
Duration                       : 1h 38mn
Bit rate mode                  : Constant
Bit rate                       : 448 Kbps
Channel(s)                     : 6 channels
Channel positions              : Front: L C R, Side: L R, LFE
Sampling rate                  : 48.0 KHz
Bit depth                      : 16 bits
Compression mode               : Lossy
Stream size                    : 317 MiB (20%)
Alignment                      : Split accross interleaves
Interleave, duration           : 42 ms (1.00 video frame)
Interleave, preload duration   : 500 ms



Colin Clark, an employee of Sir Laurence Olivier's, documents the tense interaction 
between Olivier and Marilyn Monroe during production of The Prince and the Showgirl. 


Michelle Williams	... 	Marilyn Monroe
Eddie Redmayne	... 	Colin Clark
Julia Ormond	... 	Vivien Leigh
Kenneth Branagh	... 	Sir Laurence Olivier
Pip Torrens	... 	Sir Kenneth Clark
Emma Watson	... 	Lucy	


[img]http://img337.imageshack.us/img337/1767/mmmwmwmwwmwmmwwmww.png[/img]
[img]http://img27.imageshack.us/img27/5016/mmmwmwmwwmmwwmww.png[/img]
[img]http://img845.imageshack.us/img845/6548/mmmwmwmwwmwmww.png[/img]
[img]http://img851.imageshack.us/img851/3842/mmmwmwmwwmww.png[/img]
[img]http://img849.imageshack.us/img849/4723/mmmwmwwmww.png[/img]
[img]http://img440.imageshack.us/img440/215/mmmwmwww.png[/img]
[img]http://img138.imageshack.us/img138/3598/mmmwww.png[/img]
[img]http://img838.imageshack.us/img838/3212/mmww.png[/img]
[img]http://img714.imageshack.us/img714/7665/39158039.png[/img]




Greetz

ViSiON,SPK,SceneLovers,PRESTiGE,SANTi,3LT0N,YanKeeS,COPYxRIGHT,THC,T0XiC
D2U,LKRG,Feel-Free,FLAWL3SS,WBZ,BHRG,26K,NOVA,TED,MAGNET,jtr
Unevano,Rapeseed,SAFC,goldadvance,KaN1vE,Pinnz,Wayne
Mr Hive,and most P2P groups
Great Work Guys :D

LOOKING FOR ANYTHING YOU WANT TO LOOK AND SOUND BETTER

CM8@hushmail.com